# xmcd
#
# Track frame offsets:
# 150
# 39672
# 54985
# 70501
# 88154
# 104789
# 118510
# 133908
# 148163
# 158149
# 173930
# 189198
# 203384
# 214830
# 226254
# 247187
# 264344
# 278730
#
# Disc length: 4356 seconds
#
#
# Revision: 1
# Processed by: cddbd v1.5.2PL0 Copyright (c) Steve Scherf et al.
# Submitted via: FreeRIP 2.96 
#
DISCID=07110212
DTITLE=Marco Brasil - Lembrancas
DYEAR=2003
DGENRE=Country
TTITLE0=Poema - Burrinho Pampa
TTITLE1=Meu Velho Pai
TTITLE2=Amargurado
TTITLE3=Filho Prodigo
TTITLE4=Pe de Ipe
TTITLE5=Vou Toma um Pingao
TTITLE6=Ara Po
TTITLE7=Poema - Jesus Pintou com as Maos
TTITLE8=Abandono
TTITLE9=Quando a Saudade Judia
TTITLE10=A Dama da Boate Azul
TTITLE11=Colcha de Retalhos
TTITLE12=Lagrimas que Choram
TTITLE13=Voce Vai Gostar - Casinha Branca
TTITLE14=Menina da Aldeia
TTITLE15=Rancho Estrela Dourada
TTITLE16=Agito Meu Povo
TTITLE17=Poema - O Sentido da Vida
EXTD=
EXTT0=
EXTT1=
EXTT2=
EXTT3=
EXTT4=
EXTT5=
EXTT6=
EXTT7=
EXTT8=
EXTT9=
EXTT10=
EXTT11=
EXTT12=
EXTT13=
EXTT14=
EXTT15=
EXTT16=
EXTT17=
PLAYORDER=
